<?xml version="1.0" encoding="UTF-8"?>
<svg xmlns="http://www.w3.org/2000/svg" xmlns:xlink="http://www.w3.org/1999/xlink" width="3200" height="3200" viewBox="0 0 3200 3200">
<path fill-rule="evenodd" fill="rgb(100%, 58.59375%, 0.498962%)" fill-opacity="1" d="M 1400 1347.941406 C 1372.421875 1347.941406 1350.050781 1370.269531 1350 1397.851562 C 1350 1397.851562 1347.941406 2616.332031 1347.941406 2899.996094 C 1347.941406 2939.78125 1363.738281 2977.9375 1391.871094 3006.066406 C 1420 3034.195312 1458.160156 3050 1497.941406 3050 C 1785.511719 3050 2612.429688 3050 2900 3050 C 2982.839844 3050 3050 2982.84375 3050 2900 C 3050 2612.429688 3050 1785.511719 3050 1497.941406 C 3050 1458.160156 3034.199219 1420 3006.070312 1391.871094 C 2977.941406 1363.738281 2939.78125 1347.941406 2900 1347.941406 C 2549.820312 1347.941406 1400 1347.941406 1400 1347.941406 "/>
<path fill-rule="evenodd" fill="rgb(100%, 86.326599%, 68.164062%)" fill-opacity="1" d="M 1547.941406 1800 L 1547.941406 2800 C 1547.941406 2827.613281 1570.320312 2850 1597.941406 2850 L 2800 2850 C 2827.609375 2850 2850 2827.613281 2850 2800 L 2850 1597.941406 C 2850 1570.320312 2827.609375 1547.941406 2800 1547.941406 L 1800 1547.941406 C 1772.398438 1547.941406 1750 1570.339844 1750 1597.941406 C 1750 1625.53125 1772.398438 1647.941406 1800 1647.941406 L 2750 1647.941406 L 2750 2750 L 1647.941406 2750 L 1647.941406 1800 C 1647.941406 1772.398438 1625.539062 1750 1597.941406 1750 C 1570.339844 1750 1547.941406 1772.398438 1547.941406 1800 "/>
<path fill-rule="evenodd" fill="rgb(100%, 86.326599%, 68.164062%)" fill-opacity="1" d="M 2047.921875 2370 L 2350.019531 2370 L 2459.410156 2620.039062 C 2470.46875 2645.324219 2499.980469 2656.867188 2525.261719 2645.808594 C 2550.539062 2634.746094 2562.089844 2605.242188 2551.03125 2579.960938 L 2244.78125 1879.960938 C 2236.820312 1861.761719 2218.828125 1850 2198.96875 1850 C 2179.101562 1850 2161.121094 1861.761719 2153.160156 1879.960938 L 1846.910156 2579.960938 C 1835.851562 2605.242188 1847.398438 2634.746094 1872.679688 2645.808594 C 1897.960938 2656.867188 1927.46875 2645.324219 1938.53125 2620.039062 Z M 2091.671875 2270 L 2306.269531 2270 L 2198.96875 2024.738281 L 2091.671875 2270 "/>
<path fill-rule="evenodd" fill="rgb(9.790039%, 48.997498%, 93.359375%)" fill-opacity="1" d="M 2199.949219 568.328125 C 2182.789062 568.011719 2165.910156 576.539062 2156.320312 592.21875 C 2151.328125 600.371094 2148.960938 609.390625 2148.96875 618.289062 C 2148.910156 621.550781 2149.160156 624.851562 2149.761719 628.179688 L 2185.21875 825.011719 C 2190.109375 852.171875 2216.128906 870.238281 2243.289062 865.351562 C 2270.449219 860.460938 2288.53125 834.441406 2283.628906 807.28125 L 2269.199219 727.171875 C 2431.96875 852.210938 2558.828125 1021.691406 2631.539062 1217.410156 C 2641.148438 1243.28125 2669.960938 1256.480469 2695.828125 1246.871094 C 2721.691406 1237.261719 2734.890625 1208.460938 2725.28125 1182.589844 C 2645.761719 968.539062 2506.878906 783.238281 2328.660156 646.75 L 2404.660156 633.058594 C 2431.820312 628.171875 2449.898438 602.148438 2445.011719 574.988281 C 2440.121094 547.828125 2414.089844 529.761719 2386.941406 534.648438 L 2199.949219 568.328125 "/>
<path fill-rule="evenodd" fill="rgb(100%, 58.396912%, 0.39978%)" fill-opacity="1" d="M 924.75 2612.101562 L 848.746094 2625.792969 C 821.589844 2630.683594 803.511719 2656.707031 808.40625 2683.863281 C 813.296875 2711.023438 839.320312 2729.101562 866.476562 2724.207031 L 1053.460938 2690.523438 C 1070.621094 2690.839844 1087.5 2682.3125 1097.089844 2666.628906 C 1106.691406 2650.945312 1104.25 2634.003906 1103.648438 2630.679688 L 1068.191406 2433.847656 C 1063.300781 2406.6875 1037.28125 2388.609375 1010.121094 2393.503906 C 982.964844 2398.394531 964.886719 2424.414062 969.777344 2451.574219 L 984.210938 2531.683594 C 821.441406 2406.652344 694.578125 2237.164062 621.871094 2041.441406 C 612.261719 2015.570312 583.457031 2002.371094 557.589844 2011.988281 C 531.71875 2021.589844 518.519531 2050.398438 528.128906 2076.269531 C 607.648438 2290.316406 746.53125 2475.617188 924.75 2612.101562 "/>
<path fill-rule="evenodd" fill="rgb(9.912109%, 48.901367%, 93.554688%)" fill-opacity="1" d="M 1850 297.941406 C 1850 215.089844 1782.839844 147.941406 1700 147.941406 C 1412.429688 147.941406 585.507812 147.941406 297.9375 147.941406 C 215.09375 147.941406 147.9375 215.089844 147.9375 297.941406 C 147.9375 585.511719 147.9375 1412.429688 147.9375 1700 C 147.9375 1782.839844 215.09375 1850 297.9375 1850 C 585.507812 1850 1412.429688 1850 1700 1850 C 1782.839844 1850 1850 1782.839844 1850 1700 C 1850 1412.429688 1850 585.511719 1850 297.941406 "/>
<path fill-rule="evenodd" fill="rgb(67.1875%, 82.03125%, 97.65625%)" fill-opacity="1" d="M 1650 397.941406 C 1650 370.320312 1627.609375 347.941406 1600 347.941406 L 397.9375 347.941406 C 370.324219 347.941406 347.9375 370.320312 347.9375 397.941406 L 347.9375 1600 C 347.9375 1627.609375 370.324219 1650 397.9375 1650 L 1600 1650 C 1627.609375 1650 1650 1627.609375 1650 1600 Z M 1550 447.941406 L 1550 1550 L 447.9375 1550 L 447.9375 447.941406 C 447.941406 447.941406 1550 447.941406 1550 447.941406 "/>
<path fill-rule="evenodd" fill="rgb(67.1875%, 82.03125%, 97.65625%)" fill-opacity="1" d="M 939.1875 684.878906 L 656.625 684.878906 C 629.03125 684.878906 606.625 707.28125 606.625 734.878906 C 606.625 762.46875 629.03125 784.878906 656.625 784.878906 L 763.84375 784.878906 C 770.976562 936.191406 831.019531 1073.761719 925.84375 1179.449219 C 835.09375 1249.578125 721.351562 1291.308594 597.9375 1291.308594 C 570.34375 1291.308594 547.9375 1313.71875 547.9375 1341.308594 C 547.9375 1368.910156 570.34375 1391.308594 597.9375 1391.308594 C 749.855469 1391.308594 889.421875 1338.011719 998.96875 1249.058594 C 1108.511719 1338.011719 1248.078125 1391.308594 1400 1391.308594 C 1427.601562 1391.308594 1450 1368.910156 1450 1341.308594 C 1450 1313.71875 1427.601562 1291.308594 1400 1291.308594 C 1276.589844 1291.308594 1162.839844 1249.578125 1072.089844 1179.449219 C 1166.929688 1073.761719 1226.96875 936.191406 1234.101562 784.878906 L 1341.308594 784.878906 C 1368.910156 784.878906 1391.308594 762.46875 1391.308594 734.878906 C 1391.308594 707.28125 1368.910156 684.878906 1341.308594 684.878906 L 1039.191406 684.878906 L 1039.191406 656.628906 C 1039.191406 629.03125 1016.78125 606.628906 989.1875 606.628906 C 961.59375 606.628906 939.1875 629.03125 939.1875 656.628906 Z M 1133.960938 784.878906 L 863.976562 784.878906 C 870.980469 909.828125 920.785156 1023.421875 998.96875 1111.230469 C 1077.160156 1023.410156 1126.96875 909.808594 1133.960938 784.878906 "/>
</svg>
